<svg xmlns="http://www.w3.org/2000/svg" width="17.877" height="18.126" viewBox="0 0 17.877 18.126">
  <g id="favicon" transform="translate(-48.121 -22.71)">
    <path id="패스_9" data-name="패스 9" d="M193.727,14.32v1.71a.75.75,0,0,1-.247.57c-.323.3-.646.646-.95.95-.247.247-.513.513-.8.76-.133.133-.247.228-.361.361a.614.614,0,0,1-.836,0l-.684-.684-.722-.722c-.247-.247-.514-.494-.742-.741a.531.531,0,0,1-.152-.38V12.5a.117.117,0,0,0-.133-.133h-3.135a.734.734,0,0,1-.589-.247l-.723-.722c-.323-.323-.646-.665-.969-.969l-.38-.38a.608.608,0,0,1,0-.874l.874-.874.684-.684.514-.513a.717.717,0,0,1,.531-.228h3.25a.117.117,0,0,0,.133-.133V3.526a.734.734,0,0,1,.209-.513l.913-.912c.209-.209.4-.38.589-.589l.589-.589a.639.639,0,0,1,.532-.209.488.488,0,0,1,.4.228l.988.988.722.722c.1.1.209.228.323.323a.6.6,0,0,1,.209.494V6.737a.135.135,0,0,0,.153.152h3.154a.854.854,0,0,1,.437.076.264.264,0,0,1,.152.133c.342.323.666.665.989.988q.513.485,1.026,1.026a2.076,2.076,0,0,1,.247.323.548.548,0,0,1-.076.646c-.209.228-.437.437-.646.665-.247.247-.513.513-.76.8l-.742.741a.6.6,0,0,1-.456.171H193.9c-.209,0-.172,0-.172.171V14.32ZM185.9,9.645a.447.447,0,0,0,.152.4c.133.152.285.285.4.437.361.361.741.722,1.1,1.1.285.285.532.57.817.836l.456.456.97.969.684.684a.713.713,0,0,0,1.045,0c.209-.209.4-.437.646-.646l1.046-1.045c.152-.152.322-.323.512-.494.1-.1.172-.209.286-.3l.57-.57.722-.722.684-.684a.723.723,0,0,0,.019-.95c-.3-.323-.646-.646-.95-.969-.247-.247-.494-.494-.741-.722l-.609-.608c-.171-.171-.322-.323-.513-.513l-.494-.494-1.064-1.064a.981.981,0,0,0-.361-.228.7.7,0,0,0-.665.095,1.3,1.3,0,0,0-.323.323l-.988.988-1.027,1.026c-.456.456-.912.912-1.349,1.387l-.76.76a.7.7,0,0,0-.209.513H185.9Z" transform="translate(-134 22)" fill="#37c5ba" fill-rule="evenodd"/>
  </g>
</svg>
